<?xml version="1.0" encoding="UTF-8" standalone="no"?>
<!-- Created with Inkscape (http://www.inkscape.org/) -->

<svg
   xmlns:dc="http://purl.org/dc/elements/1.1/"
   xmlns:cc="http://creativecommons.org/ns#"
   xmlns:rdf="http://www.w3.org/1999/02/22-rdf-syntax-ns#"
   xmlns:svg="http://www.w3.org/2000/svg"
   xmlns="http://www.w3.org/2000/svg"
   xmlns:xlink="http://www.w3.org/1999/xlink"
   xmlns:sodipodi="http://sodipodi.sourceforge.net/DTD/sodipodi-0.dtd"
   xmlns:inkscape="http://www.inkscape.org/namespaces/inkscape"
   width="98.777779mm"
   height="98.777779mm"
   viewBox="0 0 350 350"
   id="svg4922"
   version="1.1"
   inkscape:version="0.92.2 (5c3e80d, 2017-08-06)"
   sodipodi:docname="logo.svg">
  <defs
     id="defs4924">
    <inkscape:path-effect
       effect="spiro"
       id="path-effect5526"
       is_visible="true" />
    <clipPath
       clipPathUnits="userSpaceOnUse"
       id="clipPath3726">
      <use
         x="0"
         y="0"
         xlink:href="#g3722"
         id="use3728"
         width="100%"
         height="100%" />
    </clipPath>
    <inkscape:path-effect
       is_visible="true"
       id="path-effect5526-4"
       effect="spiro" />
    <clipPath
       id="clipPath3726-0"
       clipPathUnits="userSpaceOnUse">
      <g
         inkscape:label="Clip"
         id="use3728-1">
        <circle
           transform="rotate(-90)"
           r="175"
           cy="176.26019"
           cx="-176.61534"
           id="circle66"
           style="fill:#009c00;fill-opacity:1;stroke:#000000;stroke-width:0;stroke-linejoin:miter;stroke-miterlimit:6.30000019;stroke-dasharray:none" />
      </g>
    </clipPath>
  </defs>
  <sodipodi:namedview
     id="base"
     pagecolor="#ffffff"
     bordercolor="#666666"
     borderopacity="1.0"
     inkscape:pageopacity="0.0"
     inkscape:pageshadow="2"
     inkscape:zoom="1.1960417"
     inkscape:cx="-92.768942"
     inkscape:cy="174.19195"
     inkscape:document-units="px"
     inkscape:current-layer="layer1"
     showgrid="false"
     inkscape:window-width="1920"
     inkscape:window-height="1018"
     inkscape:window-x="-8"
     inkscape:window-y="-8"
     inkscape:window-maximized="1"
     inkscape:pagecheckerboard="false"
     fit-margin-top="0"
     fit-margin-left="0"
     fit-margin-right="0"
     fit-margin-bottom="0" />
  <metadata
     id="metadata4927">
    <rdf:RDF>
      <cc:Work
         rdf:about="">
        <dc:format>image/svg+xml</dc:format>
        <dc:type
           rdf:resource="http://purl.org/dc/dcmitype/StillImage" />
        <dc:title />
      </cc:Work>
    </rdf:RDF>
  </metadata>
  <g
     inkscape:label="Ebene 1"
     inkscape:groupmode="layer"
     id="layer1"
     transform="translate(-2.3513573,-1.92267)"
     style="display:inline">
    <g
       id="g3724"
       clip-path="url(#clipPath3726)"
       transform="translate(1.0911644,0.30732882)">
      <g
         inkscape:label="Clip"
         id="g3722" />
    </g>
    <circle
       transform="rotate(-90)"
       r="175"
       cy="176.26019"
       cx="-176.61534"
       id="path4930"
       style="fill:#009c00;fill-opacity:1;stroke:#000000;stroke-width:0;stroke-linejoin:miter;stroke-miterlimit:6.30000019;stroke-dasharray:none" />
    <path
       style="fill:#ffffff;fill-opacity:1;stroke:#000000;stroke-width:0;stroke-linejoin:miter;stroke-miterlimit:6.30000019;stroke-dasharray:none"
       id="path5494"
       d="m 7.8876418,220.75437 c -1.7197969,-0.73972 -0.075586,0.0268 -0.055742,-0.91065 0.043676,-2.06196 -3.9424192,-2.06141 -1.9358348,-2.50459 2.9119589,-0.593 -0.6315007,0.20693 2.1777992,-0.74411 1.7209337,-0.609 3.2406878,-1.60158 4.6830708,-2.70343 1.821239,-1.45715 3.70563,-2.83264 5.645772,-4.12586 1.942207,-1.25619 4.021785,-2.26985 6.040525,-3.39024 1.907644,-1.02726 3.582698,-2.40266 5.30078,-3.70977 1.977517,-1.42455 3.938829,-2.85351 5.792507,-4.43964 2.092112,-1.8466 4.068642,-3.81907 6.046368,-5.78675 1.782579,-1.91347 3.896409,-3.4568 5.730143,-5.31429 1.524381,-1.56549 2.792508,-3.35331 4.167831,-5.04601 1.237862,-1.48443 2.595934,-2.85652 3.904506,-4.27657 1.493289,-1.62099 2.865332,-3.34956 4.282845,-5.03777 1.344889,-1.55294 2.238408,-3.37574 3.060708,-5.23979 0.886398,-1.97184 1.751606,-3.95268 2.794272,-5.84763 0.736693,-1.7588 1.850716,-3.28956 2.910693,-4.85698 1.160751,-1.85274 2.289064,-3.72598 3.431337,-5.59093 1.294691,-2.01607 3.076413,-3.64564 4.864476,-5.21217 1.391398,-1.24576 2.926309,-2.36639 4.602749,-3.19287 7.868434,-2.76063 18.209802,-4.69429 23.894853,1.78112 1.15288,1.5688 2.72637,2.72236 4.01074,4.16211 1.11953,1.07464 2.35035,2.07261 3.33308,3.2786 1.29,1.14262 2.20952,2.62373 3.54869,3.73582 1.25416,1.60514 3.03416,2.36913 4.77072,3.27937 1.67671,0.73621 3.24676,1.66992 4.88147,2.49058 1.64047,0.29502 2.99647,1.23549 4.49889,1.89576 1.68798,0.93052 3.47543,1.56115 5.12495,2.57771 0.77884,0.5536 1.75277,0.5795 2.61325,0.88895 0.84051,0.30227 1.56359,0.71517 2.43879,0.95484 1.78685,0.35986 3.61967,0.35722 5.43465,0.37688 2.0144,0.14135 3.98892,0.65316 6.01757,0.8434 2.01674,0.23925 4.07285,-0.0677 6.05166,0.3985 1.9791,0.48009 4.00916,0.63191 6.03661,0.71933 2.01071,0.0629 4.02275,0.0544 6.03417,0.0523 7.23569,-0.0116 0.85728,-8.4e-4 -17.60031,-0.002 -0.33574,-2e-5 0.67149,-4.2e-4 1.00723,-7.3e-4 1.00732,-9.4e-4 2.01462,-0.002 3.02193,-0.003 2.01464,-0.002 4.02928,-0.003 6.04391,-0.003 2.02567,0.0478 4.02103,0.0383 6.02129,-0.2933 1.84243,-0.18886 3.61106,-0.62208 5.39848,-1.07949 1.79285,-0.65232 3.64148,-1.13598 5.357,-1.98222 1.61413,-0.73197 3.21468,-1.46426 4.76344,-2.32727 1.44131,-0.91912 2.70059,-2.05823 3.95566,-3.21138 1.44613,-1.67111 3.11117,-3.1238 4.77635,-4.56821 1.5962,-1.25722 3.05662,-2.6537 4.46456,-4.11545 1.47465,-1.48683 2.75165,-3.15197 4.13973,-4.71716 1.29809,-1.50759 2.8414,-2.79308 4.37406,-4.05402 1.57648,-1.32389 2.91178,-2.89587 4.20054,-4.49395 1.225,-1.61894 2.6854,-3.02222 4.16978,-4.39459 1.25461,-1.08933 2.21133,-2.42238 3.14952,-3.78075 0.89901,-1.3633 1.81854,-2.67045 2.29419,-4.2447 0.51057,-1.67432 1.16588,-3.29906 1.70393,-4.96374 0.54856,-1.6048 1.27227,-3.13572 1.95769,-4.68282 0.78409,-1.82406 1.64537,-3.6123 2.49515,-5.40597 0.70957,-1.75333 1.14493,-3.60356 1.68209,-5.41709 0.57522,-1.65286 4.96931,-7.03018 5.72279,-8.61213 6.326,-4.24125 13.8966,-1.7773 18.32172,6.94999 0.81116,1.94115 1.81483,3.78871 2.53904,5.76674 0.63485,2.13569 1.05264,4.32692 1.63143,6.47597 0.56071,2.51642 1.29342,4.99101 1.80348,7.52026 0.62112,2.09682 1.05923,4.23286 1.64418,6.33829 0.58156,1.74814 1.10869,3.52991 1.71719,5.27514 0.5965,1.97954 1.58395,3.80176 2.27881,5.74533 0.91675,2.01198 1.94494,3.98175 3.0231,5.91327 1.2527,1.94381 2.34162,4.01036 3.79716,5.81226 1.06083,1.65613 1.98331,3.39572 2.948,5.10783 1.10875,1.69937 2.32354,3.32004 3.73115,4.77959 1.39455,1.8712 2.93361,3.62184 4.51463,5.33467 2.23699,1.87771 4.30349,3.96908 6.63332,5.73041 2.03564,1.39716 3.62292,3.30981 5.67782,4.67501 1.47732,1.34389 3.22891,2.34649 4.73027,3.65445 1.76318,1.21045 3.30617,2.64875 5.13498,3.76589 2.42207,1.65654 5.13441,2.81077 7.8126,3.9763 3.08847,1.05562 6.08454,2.35714 9.15154,3.46064 2.84018,0.90549 5.7037,1.70699 8.55877,2.55737 2.10753,0.60993 4.29573,0.73117 6.4745,0.78783 2.23642,0.58834 4.55056,0.79124 6.8525,0.90995 2.70073,0.71316 -0.37617,0.58184 2.35623,1.07175 3.61115,0.49056 2.07036,0.1783 5.69876,0.54938 4.15571,0.72221 -1.27568,0.90297 -1.27568,0.90297 3.1849,-0.30168 -2.85109,-1.16887 0.34275,-0.9703 2.20222,-0.13502 -1.11446,0.94888 1.03152,1.31796 1.33233,0.17561 -2.4772,2.50404 -1.14435,2.6311 l -1.30886,-0.73494 1.1823,-1.28791 c 0,0 1.38102,2.82103 0.0432,2.5894 -2.10169,-0.36388 3.18109,-0.33782 1.05638,-0.49285 -3.11553,-0.30288 1.90329,1.50971 -1.21931,1.28038 -4.21129,-0.29693 -2.91376,-0.67275 -7.09415,-1.26049 -3.65445,-0.46855 -7.28126,-1.12329 -10.93673,-1.58789 -2.77465,-0.30504 -5.53205,-0.7087 -8.3001,-1.04897 -2.31482,-0.22301 -4.59816,-0.66805 -6.91238,-0.86323 -2.19734,-0.18615 -4.36943,-0.54751 -6.46165,-1.27209 -2.82901,-0.88595 -5.70492,-1.62966 -8.47524,-2.6983 -3.04622,-1.2108 -6.14817,-2.27359 -9.16259,-3.56424 -2.75583,-1.22838 -5.47064,-2.56378 -7.96012,-4.28469 -1.79553,-1.24311 -3.46896,-2.65574 -5.22978,-3.948 -1.59869,-1.157 -3.16939,-2.3522 -4.69812,-3.60028 -1.8723,-1.57576 -3.61538,-3.29992 -5.5902,-4.7534 -2.26816,-1.96093 -4.54161,-3.92633 -6.68809,-6.02045 -1.57959,-1.73507 -3.08048,-3.5339 -4.58148,-5.3368 -1.40356,-1.62761 -2.69152,-3.37541 -3.80983,-5.21183 -0.94954,-1.63458 -1.73944,-3.36805 -2.87525,-4.88811 -1.32594,-1.98766 -2.6073,-4.0032 -3.798,-6.0759 -1.08355,-2.03097 -2.20376,-4.05563 -3.05996,-6.19579 -0.75794,-1.94352 -1.71764,-3.80855 -2.31887,-5.813 -0.57509,-1.79044 -1.21071,-3.56326 -1.68413,-5.38311 -0.58671,-2.14855 -1.02548,-4.33072 -1.60618,-6.48151 -0.49345,-2.48985 -1.19293,-4.93139 -1.79612,-7.39558 -0.54965,-2.0887 -1.03195,-4.1983 -1.66639,-6.2623 -0.76301,-1.88655 -1.70565,-3.69383 -2.58994,-5.52524 -0.35462,-0.64377 -0.65388,-1.17301 -1.1776,-1.68652 -0.14213,-0.13934 -0.24141,-0.36229 -0.4345,-0.40951 -0.12263,-0.03 -0.4279,0.2315 -0.30169,0.22947 6.5183,-0.1047 13.03335,-0.3591 19.55003,-0.53864 -1.1036,-0.43419 -1.47558,2.98358 -1.91359,3.65202 -0.53254,1.92237 -1.1527,3.8169 -1.74845,5.7187 -0.79346,1.77759 -1.6662,3.51713 -2.41397,5.31481 -0.57204,1.54222 -1.38427,2.97289 -1.9935,4.50302 -0.47333,1.65944 -1.07198,3.28326 -1.68316,4.89454 -0.43716,1.84739 -1.25042,3.37355 -2.31515,4.9224 -0.97134,1.44255 -1.84465,3.01212 -3.20331,4.12233 -1.30771,1.47805 -2.98408,2.5897 -4.16771,4.18859 -1.31531,1.70303 -2.68694,3.35788 -4.23695,4.8541 -1.3899,1.29752 -2.93523,2.42708 -4.30895,3.75431 -1.32766,1.66894 -2.8643,3.17085 -4.21174,4.82859 -1.43035,1.55176 -2.8253,3.11215 -4.50547,4.39477 -1.70215,1.23791 -3.27872,2.73345 -4.68285,4.29393 -1.13596,1.36128 -2.52066,2.57004 -3.95988,3.59111 -1.39001,1.21668 -3.10949,1.9944 -4.82263,2.65148 -1.75075,0.87027 -3.46141,1.7563 -5.38261,2.21767 -1.72322,0.77939 -3.59829,1.23789 -5.47558,1.41773 -2.02857,0.34768 -3.98297,0.85254 -6.0663,0.62171 -2.01455,6e-5 -4.02911,1e-4 -6.04366,0.001 -8.5529,0.006 -17.10581,0.0283 -25.6587,0.004 -2.01863,-0.0111 -4.03961,-0.0232 -6.05332,-0.18071 -2.03238,-0.1873 -4.03616,-0.53827 -6.05284,-0.84219 -2.02006,-0.0458 -4.04446,-0.0993 -6.04889,-0.37811 -1.99567,-0.29239 -3.97305,-0.74125 -6.00272,-0.67026 -1.88194,-0.10094 -3.77964,-0.25376 -5.55092,-0.95548 -1.70724,-0.69484 -3.4806,-1.23499 -5.06928,-2.1935 -1.70381,-0.82945 -3.43142,-1.5999 -5.12589,-2.44956 -1.48431,-0.7447 -3.06817,-1.21037 -4.53039,-1.9927 -1.57311,-0.88955 -3.22492,-1.64115 -4.82123,-2.49038 -1.829857,-0.97802 -3.384013,-2.30012 -4.81087,-3.80575 -1.231501,-1.27899 -2.380934,-2.63365 -3.653438,-3.87152 -1.126917,-1.04747 -2.177052,-2.17687 -3.282838,-3.24708 -1.371155,-1.31951 -2.662895,-2.71739 -4.026152,-4.04334 -0.199316,-0.14121 -1.033013,-0.74489 -1.237733,-0.83432 -0.184846,-0.0808 -0.793941,-0.12247 -0.592312,-0.12301 6.369861,-0.0172 12.739772,0.11423 19.109523,0.073 0.25698,-0.002 -0.49028,-0.17702 -0.74684,-0.19181 -0.27568,-0.0159 -0.54814,0.0676 -0.82221,0.10134 -1.750893,0.36967 -3.153269,1.39126 -4.600668,2.4027 -1.633342,1.52633 -3.451231,2.86749 -4.838639,4.65387 -1.156992,1.85271 -2.261582,3.73369 -3.37419,5.61114 -0.948642,1.60692 -2.25525,2.97467 -2.906644,4.74596 -1.027937,1.83654 -2.006315,3.68126 -2.81268,5.63437 -0.833169,2.04823 -1.752155,4.05283 -3.093415,5.82517 -1.420914,1.71912 -2.881595,3.38814 -4.281668,5.12198 -1.292099,1.44742 -2.647488,2.80392 -3.889818,4.28851 -1.597514,1.51758 -2.68917,3.50067 -4.237533,5.07263 -1.789001,1.96553 -3.867372,3.54646 -5.79164,5.36542 -1.987997,1.99137 -3.972374,3.98775 -6.029026,5.90832 -1.805903,1.64914 -3.648552,3.27581 -5.745012,4.55043 -1.703942,1.40741 -3.441379,2.83642 -5.339401,3.9546 -1.934678,1.27694 -4.066796,2.17034 -6.034252,3.39066 -1.992644,1.09324 -3.748259,2.51144 -5.587936,3.83669 -1.438784,1.29626 -2.967921,2.56959 -4.767891,3.3102 -2.789894,1.30708 -5.884286,1.93872 -8.828185,2.80844 -2.030427,0.40991 -4.0267,0.94707 -6.051703,1.37486 -8.0449642,1.69954 2.139658,-3.0061 -5.7053535,-2.00409 l 0.7142462,-0.37275 z"
       inkscape:connector-curvature="0"
       sodipodi:nodetypes="csccccccccccccccccccccccccccsccccccsssccccccccccccccccccccccccccccccccccccccccccsccccssccccccccccccccccccccccccccccccccccccccccccccccccccccccccccccccccccccccccccccccccccccsccc" />
    <path
       style="fill:#ffffff;fill-opacity:1;stroke:#000000;stroke-width:0;stroke-linejoin:miter;stroke-miterlimit:6.30000019;stroke-dasharray:none"
       d="M 12.827575,240.77004 C 11.116274,237.01985 8.5781453,230.54225 7.1872963,226.37537 l -2.5288047,-7.57615 2.2174369,-0.64658 c 1.2195943,-0.35562 5.3115295,-1.43822 9.0931945,-2.40578 4.281369,-1.09541 9.222359,-3.35048 13.094876,-5.97651 3.420518,-2.31953 8.283678,-5.40881 10.807018,-6.86507 10.512393,-6.06688 34.062983,-30.14305 38.304525,-39.15937 1.176137,-2.50013 3.720438,-7.17441 5.653999,-10.38729 l 3.515579,-5.84161 4.10453,3.7187 c 5.675837,5.14231 23.95389,13.66266 30.9549,14.42969 l 5.53024,0.60589 -4.94747,3.283 c -2.7211,1.80565 -5.663,3.31946 -6.53754,3.36404 -0.87454,0.0446 -4.30979,1.52192 -7.63387,3.28299 -7.52049,3.9843 -8.32032,6.5744 -3.35795,10.87405 1.84687,1.60023 5.17108,3.39967 7.38715,3.99876 5.9493,1.60835 7.92493,3.37998 7.1632,6.42356 -0.64612,2.58161 -7.87537,7.66447 -10.90102,7.66447 -2.74814,0 -10.868009,4.09388 -10.868009,5.47943 0,1.96234 1.745494,3.03493 9.084039,5.582 5.74264,1.99316 12.09308,5.7056 10.9528,6.40296 -0.21699,0.1327 -3.00091,1.4801 -6.18649,2.99422 -4.62957,2.20046 -5.79196,3.22944 -5.79196,5.12716 0,3.12783 -3.69227,4.80288 -12.087582,5.48372 -3.601096,0.29204 -7.441545,1.14854 -8.534348,1.90334 -2.540252,1.75456 -7.569901,1.76253 -10.128371,0.016 -1.092794,-0.74598 -4.026681,-1.86761 -6.519747,-2.49253 -4.190027,-1.05028 -4.662738,-0.9668 -6.250499,1.10378 -0.944713,1.232 -1.851274,3.14913 -2.014592,4.2603 -0.276676,1.88241 -0.925248,1.99551 -9.502584,1.657 -7.90208,-0.31186 -9.343206,-0.11679 -10.177103,1.37751 -0.78732,1.41085 -1.368752,1.52758 -3.067539,0.61584 -3.368645,-1.80795 -11.945821,-1.34446 -16.568563,0.89534 -2.293352,1.11116 -4.470772,2.0203 -4.838709,2.0203 -0.367948,0 -2.069147,-3.0683 -3.780458,-6.81849 z"
       id="path5518"
       inkscape:connector-curvature="0"
       sodipodi:nodetypes="cccsscssscsscccssccsssccsscccccscscscc" />
    <path
       style="fill:#ffffff;fill-opacity:1;stroke:#000000;stroke-width:0;stroke-linejoin:miter;stroke-miterlimit:6.30000019;stroke-dasharray:none"
       d="m 251.19933,219.2078 c -2.85699,-3.61681 -6.97774,-3.92395 -12.80261,-0.95426 -2.1795,1.11117 -4.26602,2.0203 -4.63672,2.0203 -0.99254,0 -3.09878,-5.50056 -2.74154,-7.15966 0.16896,-0.78465 -0.37466,-1.36247 -1.20804,-1.28404 -3.3087,0.31138 -11.94644,2.72537 -17.95021,5.01655 -3.4834,1.32935 -7.57452,2.41004 -9.09137,2.40153 -5.49634,-0.0308 -5.74771,-0.71137 -6.29345,-17.03853 -0.2778,-8.31083 -0.76892,-15.37262 -1.09139,-15.69287 -0.32247,-0.32025 -2.7683,0.16121 -5.43518,1.0699 -4.49021,1.52997 -5.05612,1.52975 -7.65077,-0.003 -3.44945,-2.03765 -6.90883,-2.07196 -14.10693,-0.1399 -7.17576,1.92605 -6.80399,2.0004 -7.57615,-1.51523 l -0.6656,-3.03046 -12.79918,-0.0355 c -15.17243,-0.0421 -30.80584,-2.89423 -25.77143,-4.70174 0.64345,-0.23102 3.36477,-1.87342 6.04739,-3.64978 l 4.8775,-3.22975 26.38064,0.36765 c 36.79509,0.51278 38.64035,-0.0781 56.984,-18.24578 6.38921,-6.32794 14.15084,-14.31577 17.24807,-17.75075 l 5.6313,-6.24541 1.66712,5.27978 c 2.00237,6.34158 10.84545,22.03492 16.39885,29.10215 3.85624,4.90746 17.71569,17.09438 25.85517,22.73505 2.15511,1.4935 7.63516,4.21407 12.1779,6.04572 7.30288,2.94456 7.95112,3.40768 5.59691,3.99855 -3.09734,0.77738 -7.69838,0.75254 -16.99601,-0.0918 -5.34239,-0.48514 -6.98845,-0.28386 -8.28545,1.01314 -1.48464,1.48465 -1.71757,1.43355 -2.81531,-0.61757 l -1.19673,-2.23614 -1.88203,2.3242 c -1.0351,1.2783 -1.88202,3.01134 -1.88202,3.8512 0,1.19998 -0.30523,1.27368 -1.42529,0.34411 -1.0978,-0.91109 -1.61882,-0.88149 -2.26752,0.12885 -2.21946,3.45677 -3.37909,6.27931 -3.38773,8.24574 -0.008,1.77246 -5.54366,12.89609 -6.32441,12.70809 -0.12765,-0.0307 -1.28946,-1.39445 -2.58178,-3.03046 z"
       id="path5520"
       inkscape:connector-curvature="0" />
    <path
       style="fill:#ffffff;fill-opacity:1;stroke:#000000;stroke-width:0;stroke-linejoin:miter;stroke-miterlimit:6.30000019;stroke-dasharray:none"
       id="path5556"
       d="m 46.930992,294.7039 c 0,0 -0.21114,0.15384 0,0 l -3.100156,-3.53442 c 0.259,-0.20906 0.895274,-0.41811 1.154284,-0.62716 0.11797,-0.17619 0.19032,-0.39368 0.35392,-0.52858 0.36096,-0.29765 0.79326,-0.49629 1.18989,-0.74443 1.39091,-1.5486 3.24635,-2.56178 5.0982,-3.46498 1.52623,-1.06638 3.13662,-1.99738 4.69215,-3.01885 0.2056,-0.16398 0.41121,-0.32796 0.61681,-0.49194 0.32378,-0.17942 0.67164,-0.32098 0.97133,-0.53825 0.28626,-0.20754 0.32166,-0.56013 0.58569,-0.78445 0.56444,-0.47955 1.28505,-0.75563 1.94114,-1.06506 1.46343,-1.02 3.112,-1.71533 4.78443,-2.32946 0.90691,-0.43719 1.78913,-0.98538 2.74693,-1.31577 0.34989,-0.12069 0.72685,-0.16485 1.06393,-0.31769 0.0876,-0.0397 0.10842,-0.15897 0.16263,-0.23846 1.48909,-0.5541 2.91842,-1.20598 4.44419,-1.68373 1.16218,-0.3814 2.36211,-0.66025 3.52563,-1.04494 0.16447,-0.0544 0.30528,-0.16381 0.45791,-0.24571 0.26586,-0.0849 0.53172,-0.16987 0.79758,-0.2548 0.63165,-0.2894 1.35608,-0.19062 2.00288,-0.40393 0.0676,-0.0223 0.0594,-0.12942 0.0891,-0.19413 0.17561,-0.0678 0.34638,-0.1498 0.52684,-0.2034 0.64445,-0.19141 1.09741,-0.24154 1.76861,-0.35115 0.62499,-0.1849 1.29156,-0.0377 1.92158,-0.16578 0.0759,-0.0154 0.0931,-0.13406 0.16453,-0.16412 0.68696,-0.28929 1.5571,-0.31392 2.28353,-0.40467 1.87073,-0.17372 3.75336,-0.17572 5.63081,-0.18286 1.51281,-5.3e-4 3.02562,0.006 4.53843,0.008 1.41364,0.002 2.82729,0.002 4.24093,0.003 1.72421,-0.12577 3.384,0.41295 5.08043,0.62342 1.72679,0.21191 3.40689,0.76103 5.06418,1.27804 1.85212,0.76313 3.61223,1.74567 5.35087,2.73749 1.73077,0.82981 3.31411,1.94712 4.83908,3.104 1.08742,0.7082 1.96534,1.71249 3.05644,2.41368 1.17271,0.87056 2.2604,1.86713 3.4522,2.71013 1.12328,0.92654 2.243,1.85461 3.36037,2.78886 0.83529,0.63229 1.56228,1.20232 2.46392,1.69684 1.13453,0.49057 2.45384,1.41461 3.55404,2.25848 1.25105,0.92193 2.42548,1.94945 3.62759,2.93753 0.89663,0.39251 1.85929,1.63101 2.78731,1.78929 1.07437,0.64079 2.25847,1.02429 3.39765,1.51694 1.09857,0.15504 2.03896,1.09608 3.15062,1.09657 1.33585,0.40812 2.63598,0.96367 4.00156,1.26847 1.3886,0.55506 2.83314,0.87745 4.26528,1.29288 1.21186,0.21316 2.39928,0.20878 3.60732,0.46775 1.19934,0.33175 2.43141,0.40646 3.66745,0.43138 1.28897,0.0135 2.57805,0.005 3.86705,0.001 1.40934,-0.004 2.81869,-0.006 4.22804,-0.007 1.41587,-6.7e-4 2.83175,-6.1e-4 4.24762,-6e-4 1.4144,3e-5 2.82879,6e-5 4.24319,7e-5 1.4142,1e-5 2.8284,1e-5 4.2426,1e-5 0.45821,-0.11017 0.95599,0.11018 1.4142,0 0.0569,-0.0137 -0.0301,-0.14218 0.0187,-0.1745 0.42475,-0.28154 0.9584,-0.0101 1.28301,-0.45219 0.4522,-0.24105 0.98009,-0.22064 1.45188,-0.38941 0.1177,-0.0421 0.2019,-0.14745 0.30285,-0.22118 0.24022,-0.0793 0.47691,-0.17028 0.72066,-0.238 1.1941,-0.33175 0.59965,-0.0153 1.29804,-0.45187 0.38374,-0.15086 1.55053,-0.58421 1.87824,-0.80447 0.0662,-0.0445 -0.0407,-0.18482 0.0182,-0.23852 0.29017,-0.26432 1.26419,-0.55116 1.53137,-0.64468 0.67259,-0.52237 1.82925,-0.74715 2.52497,-1.19467 0.0677,-0.0436 0.0252,-0.15909 0.0378,-0.23864 0.21155,-0.11136 0.4231,-0.22272 0.63465,-0.33407 -0.0541,-0.0623 -0.21322,-0.12176 -0.16245,-0.18682 0.30262,-0.38787 1.53358,-0.8885 1.87169,-1.13296 0.0635,-0.0459 0.0147,-0.15606 0.022,-0.23409 0.24093,-0.1364 0.48187,-0.27281 0.72281,-0.40921 0.45921,-0.62271 1.4601,-0.55041 1.92568,-1.14675 0.0524,-0.0671 -0.1269,-0.18025 -0.0719,-0.24525 0.30333,-0.35817 0.76984,-0.53934 1.12857,-0.842 0.1444,-0.14085 0.3347,-0.24653 0.43319,-0.42257 0.05,-0.0894 -0.017,-0.20414 -0.0255,-0.30622 0.22829,-0.18594 0.49481,-0.33295 0.68486,-0.55783 0.0691,-0.0818 0.01,-0.21899 0.0541,-0.31653 0.0728,-0.16106 0.40203,-0.5806 0.28973,-0.4441 -1.22401,1.48776 -2.41783,3.00012 -3.62674,4.50018 0.46042,-0.57072 0.9948,-1.09169 1.34018,-1.7475 1.0123,-1.92223 -0.009,-0.39753 0.76113,-1.49764 0.46871,-0.28387 0.0788,0.008 0.53375,-0.83966 0.11283,-0.21015 0.36261,-0.33421 0.45049,-0.55594 1.05661,-2.66592 -0.20764,-0.0363 0.5512,-1.56938 0.71272,-0.59225 0.40973,-1.62959 1.09427,-2.29895 0.47107,-0.74684 0.43409,-1.7239 0.47449,-2.57762 0.0419,-1.37263 0.0324,-2.74619 0.0298,-4.11928 -0.002,-0.94633 -0.004,-1.89267 -0.005,-2.83901 -9.8e-4,-0.77036 -0.16075,-0.88296 0.12343,-0.57403 0.0143,-0.76565 -0.27949,-1.61084 -0.44308,-2.2362 -0.46296,-1.00082 -0.76036,-2.05262 -1.24067,-2.9474 -0.25308,-0.70414 -0.47521,-0.88043 -0.76554,-1.49183 -0.0316,-0.0665 0.0898,0.11679 0.13744,0.17293 0.14516,0.17105 0.45019,0.28437 0.44087,0.50852 -0.008,0.20313 -0.29644,-0.27831 -0.44466,-0.41747 0.004,0.0809 0.46233,0.40421 0.32316,0.33541 -0.22214,-0.10981 -1.73657,-0.95981 -1.87807,-1.04052 -0.95689,-0.53194 -1.9075,-0.98486 -2.895,-1.45813 -1.07419,-0.31011 -2.02353,-0.9964 -3.11809,-1.27076 -1.05265,-0.30354 -2.058,-0.66076 -3.16656,-0.71823 -1.12669,-0.0259 -2.25392,-0.0122 -3.38077,-0.006 -1.64329,-0.0341 -3.23415,-0.5246 -4.87579,-0.65182 -1.20734,-0.0615 -2.41699,-0.051 -3.62549,-0.0494 -1.62003,0.17592 -3.14782,-0.45387 -4.73026,-0.65694 -1.35161,-0.0194 -2.62101,-0.53225 -3.96021,-0.69169 -1.44683,-0.30697 -2.9485,-0.64853 -4.3618,-1.11468 -1.68934,-0.35448 -3.18741,-1.15456 -4.66404,-2.01941 -0.2054,-0.24087 -0.0853,0.0781 -0.12913,0.0599 -0.8902,-0.3697 -1.70405,-0.89502 -2.58437,-1.28179 -1.42222,-0.73393 -2.59807,-1.80332 -3.84256,-2.78261 -1.40858,-1.24017 -2.52079,-2.76173 -3.54017,-4.32475 -0.83335,-1.56349 -1.53228,-3.18329 -2.01422,-4.89369 -0.40799,-1.6539 -0.48,-3.3583 -0.51934,-5.05312 -0.0204,-1.43368 -0.0116,-2.86756 -0.008,-4.30133 0.004,-1.41192 0.005,-2.82384 0.006,-4.23576 0.008,-1.64511 0.009,-3.28894 -0.0462,-4.93314 0.11682,-0.98213 0.1982,-1.99118 0.3812,-2.9636 0.46916,-2.49298 -0.014,0.30013 0.38586,-0.95948 0.12736,-0.40115 0.20319,-0.81687 0.30478,-1.22531 1.78749,-4.40787 0.75891,-0.14746 5.39689,-7.59809 1.00338,-1.61188 -5.09386,5.61492 -3.68016,4.34749 1.74595,-1.5653 3.12304,-3.49865 4.68457,-5.24798 -0.004,-0.0717 -0.0654,-0.16648 -0.0126,-0.21511 1.19363,-1.09787 3.00123,-1.37381 4.35844,-2.19868 1.15695,-0.32297 2.23007,-0.88762 3.37987,-1.21535 1.13139,-0.32249 0.86563,0.0749 1.13538,-0.4679 0.19859,-0.0835 0.41225,-0.13778 0.59579,-0.25062 0.0886,-0.0544 0.11059,-0.18672 0.2005,-0.23894 1.14952,-0.66765 0.38194,0.0553 1.75188,-0.6083 0.063,-0.0305 0.0237,-0.13793 0.0356,-0.2069 0.20592,-0.0928 0.41184,-0.18553 0.61776,-0.27829 0.62938,-0.34925 1.38168,-0.2571 2.03657,-0.50197 0.0545,-0.0204 -0.0872,-0.13466 -0.0409,-0.16987 0.59262,-0.44967 1.74943,-0.48598 2.43799,-0.60049 0.33583,-0.0359 0.68378,-0.0114 1.00749,-0.10774 0.0612,-0.0182 -0.0687,-0.10768 -0.10299,-0.16152 0.14709,-0.0557 0.28959,-0.12546 0.44127,-0.16704 0.84983,-0.23298 1.73595,-0.3014 2.60893,-0.38412 0.30293,-0.0177 0.61645,0.0282 0.9088,-0.0531 0.0659,-0.0183 -0.0805,-0.11075 -0.12072,-0.16613 0.12377,-0.0495 0.24271,-0.11336 0.37131,-0.14842 0.7896,-0.21525 1.62394,-0.26545 2.4345,-0.33898 0.29417,-0.0168 0.59954,0.0317 0.88252,-0.0504 0.0681,-0.0198 -0.0875,-0.11171 -0.13124,-0.16757 0.12008,-0.0494 0.23512,-0.1134 0.36024,-0.14804 0.78426,-0.2171 1.61603,-0.26591 2.42169,-0.33963 -0.0513,-0.0552 -0.1978,-0.1044 -0.15376,-0.16547 0.22695,-0.31478 0.76075,-0.17151 1.11951,-0.31947 0.0649,-0.0268 0.0401,-0.15132 0.10208,-0.18438 0.32682,-0.17432 1.26909,-0.36236 1.56258,-0.43042 1.13737,-0.51237 2.21224,-1.16209 3.38308,-1.63379 0.34463,-0.10272 0.70747,-0.15724 1.03389,-0.30815 0.0834,-0.0386 0.0664,-0.18488 0.14293,-0.23592 0.47809,-0.31903 1.06021,-0.35843 1.57979,-0.56529 0.134,-0.0533 0.24071,-0.15895 0.36106,-0.23842 0.26815,-0.0925 0.5363,-0.18495 0.80445,-0.27743 -0.0208,-0.0677 -0.11344,-0.15391 -0.0624,-0.20296 0.27084,-0.26034 1.30882,-0.51488 1.53272,-0.60968 0.14141,-0.0599 0.24554,-0.18906 0.38552,-0.25222 0.60401,-0.27254 1.24117,-0.40511 1.87875,-0.57083 0.11431,-0.55965 1.20463,-0.52143 1.57695,-0.7178 0.0604,-0.0319 -0.16382,-0.12253 -0.11454,-0.16977 0.21569,-0.20679 1.37398,-0.49125 1.49458,-0.52607 -0.0556,-0.051 -0.2195,-0.099 -0.1668,-0.15298 0.59973,-0.61437 2.8935,-0.79502 3.71654,-0.89895 l -0.201,15.55505 v 0 c -0.0651,0.0984 -0.0229,0.30791 -0.0969,0.37428 -0.34861,0.31289 -1.16611,0.47954 -1.46861,0.57639 -0.32805,0.4927 -1.20288,0.55067 -1.65615,0.72521 -0.59864,0.23052 -1.03062,0.85055 -1.80333,0.73817 -0.45009,0.35991 -0.85413,0.44886 -1.37308,0.7235 -0.0708,0.0375 -0.0925,0.13516 -0.15825,0.18101 -0.52659,0.36733 -1.05027,0.46582 -1.67923,0.67895 -1.15043,0.60396 -2.37861,1.01326 -3.54575,1.57659 -1.52963,0.77933 -3.19399,1.29472 -4.83746,1.77047 -1.33061,0.64467 -2.85579,0.90442 -4.30798,1.08765 -1.16554,0.36493 -2.30813,0.65622 -3.54094,0.70515 -1.14069,0.35762 -2.25954,0.65623 -3.46423,0.7141 -0.50326,0.19634 -0.94857,0.45293 -1.49061,0.55609 -0.39289,0.0748 -0.79625,0.0877 -1.18793,0.1686 -0.0722,0.0149 -0.12565,0.0771 -0.18848,0.11568 -0.61901,0.62627 -1.61238,0.37809 -2.11829,1.06001 -1.22971,0.66215 0.61065,-0.29361 -1.54981,0.60892 -0.25791,0.10774 -0.44556,0.34772 -0.70235,0.4581 -0.51472,0.22127 -1.06696,0.34918 -1.56736,0.60701 -1.19954,0.32873 -2.44355,0.76611 -3.44262,1.50903 -0.23012,0.11254 -0.46025,0.22508 -0.69038,0.33762 -0.0169,0.0576 -0.012,0.12696 -0.0508,0.17282 -0.0883,0.10453 -0.38768,0.1448 -0.31644,0.26167 0.1056,0.17323 0.73039,-0.0614 0.60117,0.095 -0.18308,0.2216 -0.45003,0.35774 -0.67505,0.53661 1.32534,-1.51411 4.97262,-6.29041 3.976,-4.54233 -1.10638,1.9406 -2.36041,4.04246 -4.31134,5.13052 -1.78954,0.99806 2.50219,-3.24596 3.78999,-4.83975 0.12989,-0.16076 -0.11146,0.48665 -0.31224,0.53566 -0.54372,0.13273 0.37196,-1.46962 -0.37358,0.0701 -0.0577,-0.0963 -0.10404,-0.37745 -0.173,-0.28889 -0.16206,0.20811 -0.1095,0.51771 -0.19853,0.766 -0.38974,1.08689 0.006,-0.28425 -0.39312,-0.052 -0.16622,0.0966 -0.0593,0.38179 -0.12056,0.56404 -0.0301,0.0896 -0.0999,0.16046 -0.14982,0.24069 -0.072,-0.0513 -0.18376,-0.23621 -0.21588,-0.15388 -0.21186,0.54307 0.1521,2.82112 1.7e-4,3.53722 4e-5,1.41877 2.2e-4,2.83754 -0.001,4.25631 -0.002,1.39604 -0.005,2.79208 -0.0175,4.18807 -0.01,1.00427 0.007,2.01433 -0.0949,3.0141 -0.24405,0.84263 0.12669,0.7667 0.48229,1.70659 0.0208,0.0551 -0.1078,-0.0473 -0.1617,-0.071 -0.50216,-0.10885 0.94256,1.16273 0.62654,1.11718 0.68164,0.57346 0.91431,0.84649 1.56428,1.20875 1.16352,0.59689 2.28909,1.04624 3.44865,1.66558 0.34223,0.19879 1.00671,0.44743 2.1867,0.72749 1.08045,0.11959 2.02744,0.64123 3.07227,0.64881 1.33343,0.27188 2.63295,0.53467 3.98148,0.69835 1.35254,0.27449 1.59651,0.25603 2.90313,0.20303 1.62383,0.036 3.24973,0.10009 4.85973,0.33016 1.21572,0.18023 2.41701,0.48266 3.61156,0.36559 1.71218,0.0355 3.42965,0.10506 5.11625,0.42786 1.78198,0.37464 3.51616,0.91346 5.23434,1.5134 1.43981,0.58855 2.85736,1.23236 4.2745,1.87326 1.13297,0.58222 2.295,1.10542 3.39243,1.7569 1.19175,0.6009 2.69737,1.43324 3.81659,2.42819 1.08982,1.0412 2.65158,2.58084 3.08825,4.10722 0.6679,1.27244 1.36582,2.5121 1.8118,3.88068 0.73759,1.59083 1.25934,3.28591 1.66463,4.9948 0.098,0.46022 0.22829,0.91473 0.29394,1.38067 0.16264,1.15416 -0.12193,2.37149 0.002,3.5313 0.003,1.44988 0.009,2.89975 0.0198,4.3496 0.009,1.7577 0.0326,3.52097 -0.15707,5.27123 -0.0916,0.62968 -0.0983,1.85541 -0.54783,2.38563 -0.0435,0.0513 -0.17074,-0.11761 -0.1943,-0.0546 -0.23762,0.6356 -0.0881,1.37581 -0.42319,1.99121 -0.0862,0.2065 -0.17244,0.413 -0.25867,0.6195 -0.0765,0.026 -0.19766,0.004 -0.22954,0.0781 -0.14547,0.3388 -0.16127,0.72009 -0.26505,1.07388 -0.25422,0.86666 -0.74991,1.53033 -0.9547,2.41799 -0.12124,0.23567 -0.24247,0.47135 -0.36371,0.70702 -0.0984,0.0511 -0.23762,0.0586 -0.29525,0.15335 -0.18329,0.30134 -0.24214,0.66377 -0.39509,0.98158 -0.38499,0.7999 -0.79046,1.60597 -1.25398,2.36642 -2.81844,3.5855 -4.45586,6.24128 -8.02344,8.57228 -0.356,0.25657 -0.66338,0.58077 -1.03677,0.81131 -0.87899,0.54272 -1.79717,0.90899 -2.54976,1.60899 -0.63914,0.66442 0.23456,-0.18739 -1.21034,0.76879 -0.0763,0.0505 -0.0795,0.1718 -0.15055,0.2293 -0.63865,0.51643 -1.38112,0.91138 -2.13385,1.22443 -1.30228,0.7925 -2.81619,1.21592 -4.15812,1.94068 -1.18848,1.05501 -3.02428,1.12449 -4.41703,1.802 -1.58061,0.41463 -3.11022,0.99976 -4.71185,1.3501 -1.92067,0.27657 -3.82068,0.52769 -5.76939,0.39433 -1.41423,0 -2.82845,-10e-6 -4.24268,-3e-5 -1.41404,-1e-5 -2.82807,-5e-5 -4.2421,1.3e-4 -1.41255,2.4e-4 -2.82511,6.3e-4 -4.23766,0.002 -1.41907,0.002 -2.83815,0.006 -4.25722,0.002 -1.54028,-0.009 -3.08237,-0.0233 -4.61818,-0.1537 -1.62086,-0.15865 -3.22162,-0.42515 -4.81865,-0.74173 -1.62883,0.15952 -3.31974,-0.61177 -4.88474,-0.92727 -1.39982,-0.41656 -2.82019,-0.76415 -4.19495,-1.26425 -1.31488,-0.42038 -2.62683,-0.84938 -3.94833,-1.24707 -1.49671,-0.51029 -2.94807,-1.13501 -4.43287,-1.6779 -1.4974,-0.58632 -2.94645,-1.28453 -4.36008,-2.05062 -1.62032,-0.94422 -3.1775,-2.00027 -4.67674,-3.12725 -1.10979,-0.91285 -2.18337,-1.87083 -3.34721,-2.71123 -0.7937,-0.62189 -1.69964,-1.06301 -2.57943,-1.54977 -1.30893,-0.84231 -2.59118,-1.71313 -3.7981,-2.69774 -0.94989,-0.7964 -1.9022,-1.58461 -2.85081,-2.37994 -1.11911,-0.85322 -2.2086,-1.74696 -3.31983,-2.60952 -1.12935,-0.84494 -2.19238,-1.76989 -3.31805,-2.61469 -1.06617,-0.85442 -2.26629,-1.52374 -3.47705,-2.14746 -1.02173,-0.56204 -2.03674,-1.19066 -3.13447,-1.5881 -1.11746,-0.33748 -2.2613,-0.56872 -3.4206,-0.693 -1.19424,-0.20138 -2.2068,-0.34144 -3.3993,-0.22919 -1.41789,-8.7e-4 -2.83578,-0.002 -4.25366,-0.005 -1.44684,-0.002 -2.89389,-0.006 -4.34047,0.0254 -1.28868,0.0381 -2.59328,0.0563 -3.85097,0.37075 -1.1867,0.30123 -2.40935,0.40796 -3.56711,0.75209 -1.06462,0.57561 -2.27027,0.59362 -3.3538,1.1141 -1.47508,0.53327 -3.01117,0.90835 -4.45663,1.51913 -1.12488,0.52956 -2.29676,0.92319 -3.36383,1.54641 -1.49683,0.49781 -2.83239,1.35132 -4.30883,1.92278 -0.37803,0.23283 -0.80092,0.38695 -1.17889,0.61986 -0.23616,0.14553 -0.38041,0.41177 -0.61324,0.56256 -0.2643,0.17118 -0.54765,0.31099 -0.82147,0.46649 -0.18858,0.12273 -0.37716,0.24545 -0.56574,0.36817 -0.51009,1.17694 -3.05719,1.99251 -4.08422,2.872 -1.67789,1.01629 -3.26493,2.18227 -5.0083,3.095 -0.35993,0.30923 -0.76536,0.56272 -1.12528,0.87198 -0.87052,0.748 -3.482088,-5.10163 -4.537728,-4.5635 -0.69035,0.81519 0,0 0,0 v 0 c 0,0 -2.26732,-2.76319 -2.51808,-2.56952 z"
       inkscape:connector-curvature="0"
       sodipodi:nodetypes="ccccccccccccccccccccccccccccccccccccccccccccccccccsccccccccccccccccccccccccccccccccccccccccccccccccccccccccccccccccccccccccccccccccccccccccccccccccccccccccccccccccccccccccccccccccccccccccccccsccccccccccccccccccccccccccccccccccccccccccccccccccccccccccccccccccccccccccccccccccccccccccccccccccc" />
  </g>
</svg>
